<svg width="20em" height="7em" fill="none" xmlns="http://www.w3.org/2000/svg">
<line x1="297.789" y1="79.2031" x2="297.789" stroke="white" stroke-width="8.42194"/>
<path d="M12.1108 61.554C9.84872 61.554 7.84825 61.1847 6.10938 60.446C4.38589 59.692 3.03172 58.5533 2.04688 57.0298C1.06203 55.5064 0.569602 53.5675 0.569602 51.2131C0.569602 49.2741 0.90045 47.6199 1.56214 46.2504C2.22384 44.8654 3.14714 43.7344 4.33203 42.8572C5.51693 41.9801 6.89418 41.3107 8.46378 40.8491C10.0488 40.3874 11.7569 40.0874 13.5881 39.9489C15.5732 39.795 17.1658 39.6103 18.3661 39.3949C19.5818 39.1641 20.4589 38.8486 20.9975 38.4485C21.5361 38.033 21.8054 37.4867 21.8054 36.8097V36.7173C21.8054 35.794 21.4515 35.0862 20.7436 34.5938C20.0357 34.1013 19.1278 33.8551 18.0199 33.8551C16.8042 33.8551 15.8117 34.1244 15.0423 34.663C14.2882 35.1862 13.8343 35.9941 13.6804 37.0866H1.95455C2.10843 34.9323 2.79321 32.9472 4.00888 31.1314C5.23994 29.3002 7.03267 27.8383 9.38707 26.7457C11.7415 25.6378 14.6806 25.0838 18.2045 25.0838C20.7436 25.0838 23.0211 25.3839 25.0369 25.984C27.0528 26.5688 28.7686 27.392 30.1843 28.4538C31.6 29.5002 32.6772 30.7313 33.4158 32.147C34.1699 33.5473 34.5469 35.0708 34.5469 36.7173V61H22.6364V56.0142H22.3594C21.6515 57.3376 20.7898 58.4071 19.7741 59.2227C18.7739 60.0382 17.6275 60.6307 16.3349 61C15.0576 61.3693 13.6496 61.554 12.1108 61.554ZM16.2656 53.5213C17.2351 53.5213 18.143 53.3213 18.9893 52.9212C19.8511 52.5211 20.5513 51.944 21.0898 51.19C21.6284 50.436 21.8977 49.5204 21.8977 48.4432V45.4886C21.5592 45.6271 21.1976 45.7579 20.8129 45.881C20.4435 46.0041 20.0434 46.1196 19.6126 46.2273C19.1971 46.335 18.7508 46.435 18.2738 46.5273C17.8121 46.6197 17.3274 46.7043 16.8196 46.7812C15.8348 46.9351 15.0269 47.189 14.396 47.543C13.7804 47.8815 13.3188 48.3047 13.011 48.8125C12.7186 49.3049 12.5724 49.8589 12.5724 50.4744C12.5724 51.4593 12.9187 52.2133 13.6112 52.7365C14.3036 53.2597 15.1884 53.5213 16.2656 53.5213ZM39.8502 61V13.7273H52.5917V31.7315H52.7763C53.238 30.5312 53.9151 29.431 54.8076 28.4308C55.7001 27.4151 56.8081 26.6072 58.1314 26.0071C59.4548 25.3916 60.9937 25.0838 62.7479 25.0838C65.0869 25.0838 67.3105 25.707 69.4187 26.9535C71.5423 28.1999 73.2658 30.1619 74.5892 32.8395C75.928 35.517 76.5974 38.9948 76.5974 43.2727C76.5974 47.366 75.9587 50.7591 74.6815 53.4521C73.4197 56.145 71.727 58.1532 69.6034 59.4766C67.4952 60.8 65.1793 61.4616 62.6556 61.4616C60.9937 61.4616 59.5087 61.1924 58.2007 60.6538C56.9081 60.0998 55.8001 59.3535 54.8768 58.4148C53.9689 57.4607 53.2688 56.3835 52.7763 55.1832H52.4993V61H39.8502ZM52.3147 43.2727C52.3147 44.9962 52.5378 46.4889 52.9841 47.7507C53.4457 48.9972 54.092 49.9666 54.923 50.6591C55.7694 51.3362 56.7773 51.6747 57.9468 51.6747C59.1163 51.6747 60.1088 51.3439 60.9244 50.6822C61.7554 50.0051 62.3863 49.0433 62.8172 47.7969C63.2634 46.535 63.4866 45.027 63.4866 43.2727C63.4866 41.5185 63.2634 40.0181 62.8172 38.7717C62.3863 37.5098 61.7554 36.5481 60.9244 35.8864C60.1088 35.2093 59.1163 34.8707 57.9468 34.8707C56.7773 34.8707 55.7694 35.2093 54.923 35.8864C54.092 36.5481 53.4457 37.5098 52.9841 38.7717C52.5378 40.0181 52.3147 41.5185 52.3147 43.2727ZM98.4104 61.6463C94.5633 61.6463 91.2702 60.8846 88.5311 59.3612C85.792 57.8223 83.6915 55.6834 82.2296 52.9442C80.7677 50.1897 80.0368 46.9967 80.0368 43.3651C80.0368 39.7334 80.7677 36.5481 82.2296 33.8089C83.6915 31.0544 85.792 28.9155 88.5311 27.392C91.2702 25.8532 94.5633 25.0838 98.4104 25.0838C102.257 25.0838 105.551 25.8532 108.29 27.392C111.029 28.9155 113.129 31.0544 114.591 33.8089C116.053 36.5481 116.784 39.7334 116.784 43.3651C116.784 46.9967 116.053 50.1897 114.591 52.9442C113.129 55.6834 111.029 57.8223 108.29 59.3612C105.551 60.8846 102.257 61.6463 98.4104 61.6463ZM98.5027 52.2287C99.5799 52.2287 100.511 51.8671 101.296 51.1438C102.08 50.4206 102.688 49.3896 103.119 48.0508C103.55 46.712 103.765 45.1193 103.765 43.2727C103.765 41.4107 103.55 39.8181 103.119 38.4947C102.688 37.1559 102.08 36.1249 101.296 35.4016C100.511 34.6784 99.5799 34.3168 98.5027 34.3168C97.364 34.3168 96.3868 34.6784 95.5712 35.4016C94.7556 36.1249 94.1324 37.1559 93.7015 38.4947C93.2707 39.8181 93.0552 41.4107 93.0552 43.2727C93.0552 45.1193 93.2707 46.712 93.7015 48.0508C94.1324 49.3896 94.7556 50.4206 95.5712 51.1438C96.3868 51.8671 97.364 52.2287 98.5027 52.2287ZM144.344 45.4886V25.5455H157.086V61H144.991V54.2599H144.621C143.852 56.522 142.506 58.2917 140.582 59.5689C138.658 60.8307 136.373 61.4616 133.727 61.4616C131.249 61.4616 129.079 60.8923 127.217 59.7536C125.371 58.6148 123.932 57.0452 122.901 55.0447C121.885 53.0443 121.37 50.7514 121.354 48.1662V25.5455H134.096V45.4886C134.111 47.2429 134.558 48.6201 135.435 49.6204C136.327 50.6206 137.574 51.1207 139.174 51.1207C140.236 51.1207 141.151 50.8976 141.921 50.4513C142.706 49.9897 143.306 49.3434 143.721 48.5124C144.152 47.6661 144.36 46.6581 144.344 45.4886ZM184.11 25.5455V34.7784H160.75V25.5455H184.11ZM165.275 17.0511H178.016V49.5973C178.016 50.0897 178.101 50.5052 178.27 50.8438C178.439 51.1669 178.701 51.4131 179.055 51.5824C179.409 51.7363 179.863 51.8132 180.417 51.8132C180.801 51.8132 181.248 51.767 181.755 51.6747C182.279 51.5824 182.663 51.5054 182.909 51.4439L184.756 60.3999C184.187 60.5691 183.371 60.7769 182.309 61.0231C181.263 61.2693 180.016 61.4309 178.57 61.5078C175.646 61.6617 173.192 61.3616 171.207 60.6076C169.222 59.8382 167.729 58.6302 166.729 56.9837C165.728 55.3371 165.244 53.2751 165.275 50.7976V17.0511ZM224.048 45.4886V25.5455H236.79V61H224.695V54.2599H224.325C223.556 56.522 222.209 58.2917 220.286 59.5689C218.362 60.8307 216.077 61.4616 213.43 61.4616C210.953 61.4616 208.783 60.8923 206.921 59.7536C205.075 58.6148 203.636 57.0452 202.605 55.0447C201.589 53.0443 201.074 50.7514 201.058 48.1662V25.5455H213.8V45.4886C213.815 47.2429 214.261 48.6201 215.139 49.6204C216.031 50.6206 217.278 51.1207 218.878 51.1207C219.94 51.1207 220.855 50.8976 221.625 50.4513C222.409 49.9897 223.01 49.3434 223.425 48.5124C223.856 47.6661 224.064 46.6581 224.048 45.4886ZM275.078 37.0866H263.352C263.29 36.3634 263.037 35.7402 262.59 35.217C262.144 34.6938 261.567 34.2937 260.859 34.0167C260.167 33.7243 259.397 33.5781 258.551 33.5781C257.458 33.5781 256.52 33.7782 255.735 34.1783C254.95 34.5784 254.565 35.1477 254.581 35.8864C254.565 36.4096 254.788 36.8943 255.25 37.3406C255.727 37.7868 256.643 38.133 257.997 38.3793L265.199 39.6719C268.83 40.3336 271.531 41.4492 273.301 43.0188C275.086 44.573 275.986 46.6581 276.001 49.2741C275.986 51.7978 275.232 53.9906 273.739 55.8526C272.262 57.6992 270.238 59.1303 267.668 60.146C265.114 61.1462 262.198 61.6463 258.92 61.6463C253.504 61.6463 249.264 60.5384 246.202 58.3224C243.155 56.1065 241.455 53.1828 241.101 49.5511H253.75C253.919 50.6745 254.473 51.5439 255.412 52.1594C256.366 52.7596 257.566 53.0597 259.013 53.0597C260.182 53.0597 261.144 52.8596 261.898 52.4595C262.667 52.0594 263.06 51.4901 263.075 50.7514C263.06 50.0743 262.721 49.5357 262.059 49.1357C261.413 48.7356 260.397 48.4124 259.013 48.1662L252.734 47.0582C249.118 46.4273 246.41 45.227 244.609 43.4574C242.809 41.6877 241.916 39.4103 241.932 36.625C241.916 34.1629 242.562 32.0778 243.87 30.3697C245.194 28.6462 247.079 27.3382 249.526 26.4457C251.988 25.5378 254.904 25.0838 258.274 25.0838C263.398 25.0838 267.438 26.1456 270.392 28.2692C273.362 30.3928 274.924 33.3319 275.078 37.0866Z" fill="white"/>
</svg>
