<svg width="987" height="557" viewBox="0 0 987 557" fill="none" xmlns="http://www.w3.org/2000/svg">
<path d="M268.15 536.75C265.683 536.75 263.733 536.05 262.3 534.65C260.867 533.25 260.15 531.15 260.15 528.35C260.15 525.483 260.917 523.35 262.45 521.95C264.017 520.517 266.033 519.8 268.5 519.8C269.467 519.8 270.367 519.9 271.2 520.1C272.033 520.3 272.833 520.6 273.6 521L272.25 524.5C271.583 524.2 270.95 523.983 270.35 523.85C269.75 523.683 269.133 523.6 268.5 523.6C267.4 523.6 266.533 524 265.9 524.8C265.3 525.6 265 526.783 265 528.35C265 529.917 265.3 531.083 265.9 531.85C266.533 532.617 267.383 533 268.45 533C269.217 533 270 532.883 270.8 532.65C271.6 532.383 272.4 532.05 273.2 531.65V535.5C272.433 535.9 271.65 536.217 270.85 536.45C270.05 536.65 269.15 536.75 268.15 536.75ZM267 549.8C264 549.8 261.183 549.233 258.55 548.1C255.95 547 253.65 545.467 251.65 543.5C249.683 541.5 248.133 539.2 247 536.6C245.9 533.967 245.35 531.15 245.35 528.15C245.35 525.15 245.9 522.35 247 519.75C248.133 517.117 249.683 514.817 251.65 512.85C253.65 510.85 255.95 509.3 258.55 508.2C261.183 507.067 264 506.5 267 506.5C270 506.5 272.8 507.067 275.4 508.2C278.033 509.3 280.333 510.85 282.3 512.85C284.3 514.817 285.85 517.117 286.95 519.75C288.083 522.35 288.65 525.15 288.65 528.15C288.65 531.15 288.083 533.967 286.95 536.6C285.85 539.2 284.3 541.5 282.3 543.5C280.333 545.467 278.033 547 275.4 548.1C272.8 549.233 270 549.8 267 549.8ZM267 545.35C269.4 545.35 271.633 544.917 273.7 544.05C275.767 543.15 277.583 541.917 279.15 540.35C280.75 538.75 281.983 536.917 282.85 534.85C283.75 532.75 284.2 530.517 284.2 528.15C284.2 525.75 283.75 523.517 282.85 521.45C281.983 519.383 280.75 517.567 279.15 516C277.583 514.4 275.75 513.167 273.65 512.3C271.583 511.4 269.367 510.95 267 510.95C264.6 510.95 262.367 511.4 260.3 512.3C258.233 513.167 256.4 514.4 254.8 516C253.233 517.567 252 519.4 251.1 521.5C250.233 523.567 249.8 525.783 249.8 528.15C249.8 530.55 250.233 532.783 251.1 534.85C252 536.917 253.233 538.75 254.8 540.35C256.4 541.917 258.233 543.15 260.3 544.05C262.4 544.917 264.633 545.35 267 545.35ZM303.176 546V538.898L316.741 527.676C317.641 526.93 318.41 526.232 319.049 525.581C319.7 524.918 320.197 524.237 320.541 523.539C320.896 522.841 321.073 522.065 321.073 521.213C321.073 520.278 320.872 519.479 320.47 518.816C320.079 518.153 319.535 517.644 318.836 517.289C318.138 516.922 317.333 516.739 316.421 516.739C315.51 516.739 314.705 516.922 314.007 517.289C313.32 517.656 312.787 518.195 312.409 518.905C312.03 519.615 311.84 520.479 311.84 521.497H302.465C302.465 518.94 303.04 516.739 304.188 514.892C305.336 513.045 306.958 511.625 309.053 510.631C311.148 509.636 313.604 509.139 316.421 509.139C319.333 509.139 321.855 509.607 323.985 510.542C326.128 511.465 327.779 512.767 328.939 514.448C330.111 516.129 330.697 518.1 330.697 520.361C330.697 521.758 330.407 523.148 329.827 524.533C329.247 525.906 328.205 527.428 326.702 529.097C325.199 530.766 323.062 532.754 320.292 535.062L316.883 537.903V538.116H331.088V546H303.176ZM350.738 546.994C347.435 546.982 344.583 546.219 342.18 544.704C339.777 543.189 337.924 541.005 336.622 538.152C335.32 535.299 334.675 531.878 334.687 527.889C334.699 523.888 335.35 520.491 336.64 517.697C337.942 514.904 339.789 512.779 342.18 511.323C344.583 509.867 347.435 509.139 350.738 509.139C354.041 509.139 356.893 509.873 359.296 511.341C361.699 512.797 363.552 514.922 364.854 517.715C366.156 520.509 366.801 523.9 366.789 527.889C366.789 531.902 366.138 535.335 364.836 538.188C363.534 541.04 361.681 543.224 359.278 544.739C356.887 546.243 354.041 546.994 350.738 546.994ZM350.738 538.969C352.443 538.969 353.839 538.081 354.928 536.305C356.029 534.518 356.574 531.713 356.562 527.889C356.562 525.392 356.313 523.35 355.816 521.763C355.319 520.177 354.632 519.005 353.756 518.248C352.881 517.478 351.874 517.094 350.738 517.094C349.033 517.094 347.643 517.958 346.565 519.686C345.488 521.414 344.938 524.149 344.914 527.889C344.902 530.434 345.145 532.529 345.642 534.175C346.139 535.808 346.826 537.016 347.702 537.797C348.59 538.578 349.602 538.969 350.738 538.969ZM370.823 546V538.898L384.389 527.676C385.288 526.93 386.058 526.232 386.697 525.581C387.348 524.918 387.845 524.237 388.188 523.539C388.544 522.841 388.721 522.065 388.721 521.213C388.721 520.278 388.52 519.479 388.117 518.816C387.727 518.153 387.182 517.644 386.484 517.289C385.785 516.922 384.981 516.739 384.069 516.739C383.158 516.739 382.353 516.922 381.654 517.289C380.968 517.656 380.435 518.195 380.056 518.905C379.678 519.615 379.488 520.479 379.488 521.497H370.113C370.113 518.94 370.687 516.739 371.835 514.892C372.984 513.045 374.605 511.625 376.7 510.631C378.796 509.636 381.252 509.139 384.069 509.139C386.981 509.139 389.502 509.607 391.633 510.542C393.776 511.465 395.427 512.767 396.587 514.448C397.759 516.129 398.345 518.1 398.345 520.361C398.345 521.758 398.055 523.148 397.475 524.533C396.895 525.906 395.853 527.428 394.35 529.097C392.846 530.766 390.71 532.754 387.94 535.062L384.531 537.903V538.116H398.735V546H370.823ZM401.411 540.318V532.648L416.042 509.636H423.002V519.864H419.025L411.141 532.364V532.648H432.732V540.318H401.411ZM419.096 546V537.974L419.309 534.636V509.636H428.542V546H419.096ZM454.513 539.537L454.584 527.889H455.862L462.467 518.727H473.476L462.396 533.003H459.626L454.513 539.537ZM445.706 546V509.636H455.507V546H445.706ZM462.538 546L456.288 535.205L462.68 528.244L473.76 546H462.538ZM483.027 546.426C481.287 546.426 479.749 546.142 478.411 545.574C477.085 544.994 476.044 544.118 475.286 542.946C474.528 541.774 474.15 540.283 474.15 538.472C474.15 536.98 474.404 535.708 474.913 534.654C475.422 533.589 476.132 532.719 477.044 532.044C477.955 531.369 479.015 530.854 480.222 530.499C481.441 530.144 482.755 529.913 484.164 529.807C485.691 529.688 486.916 529.546 487.839 529.381C488.774 529.203 489.449 528.96 489.863 528.653C490.278 528.333 490.485 527.913 490.485 527.392V527.321C490.485 526.611 490.213 526.066 489.668 525.688C489.124 525.309 488.425 525.119 487.573 525.119C486.638 525.119 485.874 525.326 485.282 525.741C484.702 526.143 484.353 526.765 484.235 527.605H475.215C475.333 525.948 475.86 524.421 476.795 523.024C477.742 521.616 479.121 520.491 480.932 519.651C482.743 518.798 485.004 518.372 487.715 518.372C489.668 518.372 491.42 518.603 492.971 519.065C494.521 519.514 495.841 520.148 496.93 520.964C498.019 521.769 498.848 522.716 499.416 523.805C499.996 524.883 500.286 526.054 500.286 527.321V546H491.124V542.165H490.911C490.366 543.183 489.704 544.005 488.922 544.633C488.153 545.26 487.271 545.716 486.277 546C485.294 546.284 484.211 546.426 483.027 546.426ZM486.223 540.247C486.969 540.247 487.668 540.093 488.319 539.786C488.981 539.478 489.52 539.034 489.934 538.454C490.349 537.874 490.556 537.17 490.556 536.341V534.068C490.295 534.175 490.017 534.275 489.721 534.37C489.437 534.465 489.129 534.554 488.798 534.636C488.478 534.719 488.135 534.796 487.768 534.867C487.413 534.938 487.04 535.003 486.65 535.062C485.892 535.181 485.271 535.376 484.785 535.648C484.312 535.909 483.957 536.234 483.72 536.625C483.495 537.004 483.383 537.43 483.383 537.903C483.383 538.661 483.649 539.241 484.182 539.643C484.714 540.046 485.395 540.247 486.223 540.247ZM513.176 539.537L513.247 527.889H514.525L521.13 518.727H532.139L521.059 533.003H518.289L513.176 539.537ZM504.369 546V509.636H514.17V546H504.369ZM521.201 546L514.951 535.205L521.343 528.244L532.423 546H521.201ZM541.691 546.426C539.951 546.426 538.412 546.142 537.074 545.574C535.748 544.994 534.707 544.118 533.949 542.946C533.192 541.774 532.813 540.283 532.813 538.472C532.813 536.98 533.067 535.708 533.576 534.654C534.085 533.589 534.796 532.719 535.707 532.044C536.618 531.369 537.678 530.854 538.885 530.499C540.105 530.144 541.418 529.913 542.827 529.807C544.354 529.688 545.579 529.546 546.502 529.381C547.438 529.203 548.112 528.96 548.527 528.653C548.941 528.333 549.148 527.913 549.148 527.392V527.321C549.148 526.611 548.876 526.066 548.331 525.688C547.787 525.309 547.088 525.119 546.236 525.119C545.301 525.119 544.538 525.326 543.946 525.741C543.366 526.143 543.016 526.765 542.898 527.605H533.878C533.997 525.948 534.523 524.421 535.458 523.024C536.405 521.616 537.784 520.491 539.596 519.651C541.407 518.798 543.667 518.372 546.378 518.372C548.331 518.372 550.083 518.603 551.634 519.065C553.185 519.514 554.504 520.148 555.593 520.964C556.682 521.769 557.511 522.716 558.079 523.805C558.659 524.883 558.949 526.054 558.949 527.321V546H549.787V542.165H549.574C549.03 543.183 548.367 544.005 547.586 544.633C546.816 545.26 545.934 545.716 544.94 546C543.958 546.284 542.874 546.426 541.691 546.426ZM544.887 540.247C545.632 540.247 546.331 540.093 546.982 539.786C547.645 539.478 548.183 539.034 548.598 538.454C549.012 537.874 549.219 537.17 549.219 536.341V534.068C548.959 534.175 548.681 534.275 548.385 534.37C548.1 534.465 547.793 534.554 547.461 534.636C547.142 534.719 546.798 534.796 546.431 534.867C546.076 534.938 545.703 535.003 545.313 535.062C544.555 535.181 543.934 535.376 543.449 535.648C542.975 535.909 542.62 536.234 542.383 536.625C542.158 537.004 542.046 537.43 542.046 537.903C542.046 538.661 542.312 539.241 542.845 539.643C543.377 540.046 544.058 540.247 544.887 540.247ZM576.171 546.497C573.212 546.497 570.679 545.911 568.572 544.739C566.465 543.556 564.849 541.91 563.725 539.803C562.6 537.684 562.038 535.228 562.038 532.435C562.038 529.641 562.6 527.191 563.725 525.084C564.849 522.965 566.465 521.32 568.572 520.148C570.679 518.964 573.212 518.372 576.171 518.372C579.131 518.372 581.664 518.964 583.771 520.148C585.878 521.32 587.494 522.965 588.618 525.084C589.743 527.191 590.305 529.641 590.305 532.435C590.305 535.228 589.743 537.684 588.618 539.803C587.494 541.91 585.878 543.556 583.771 544.739C581.664 545.911 579.131 546.497 576.171 546.497ZM576.243 539.253C577.071 539.253 577.787 538.975 578.391 538.418C578.995 537.862 579.462 537.069 579.794 536.039C580.125 535.009 580.291 533.784 580.291 532.364C580.291 530.931 580.125 529.706 579.794 528.688C579.462 527.658 578.995 526.865 578.391 526.309C577.787 525.753 577.071 525.474 576.243 525.474C575.367 525.474 574.615 525.753 573.988 526.309C573.36 526.865 572.881 527.658 572.549 528.688C572.218 529.706 572.052 530.931 572.052 532.364C572.052 533.784 572.218 535.009 572.549 536.039C572.881 537.069 573.36 537.862 573.988 538.418C574.615 538.975 575.367 539.253 576.243 539.253ZM609.946 518.727V525.83H591.978V518.727H609.946ZM595.458 512.193H605.259V537.229C605.259 537.607 605.324 537.927 605.454 538.188C605.584 538.436 605.786 538.625 606.058 538.756C606.33 538.874 606.679 538.933 607.106 538.933C607.401 538.933 607.745 538.898 608.135 538.827C608.538 538.756 608.834 538.696 609.023 538.649L610.444 545.538C610.006 545.669 609.378 545.828 608.562 546.018C607.757 546.207 606.798 546.331 605.685 546.391C603.436 546.509 601.548 546.278 600.021 545.698C598.494 545.106 597.346 544.177 596.576 542.911C595.807 541.644 595.434 540.058 595.458 538.152V512.193ZM626.121 546.497C623.209 546.497 620.7 545.941 618.593 544.828C616.498 543.704 614.882 542.094 613.745 539.999C612.621 537.892 612.059 535.37 612.059 532.435C612.059 529.617 612.627 527.155 613.763 525.048C614.9 522.941 616.504 521.302 618.575 520.13C620.647 518.958 623.091 518.372 625.908 518.372C627.968 518.372 629.832 518.692 631.501 519.331C633.17 519.97 634.597 520.899 635.78 522.119C636.964 523.326 637.875 524.794 638.515 526.522C639.154 528.25 639.473 530.197 639.473 532.364V534.636H615.113V529.239H630.454C630.442 528.457 630.24 527.771 629.85 527.179C629.471 526.575 628.956 526.108 628.305 525.776C627.666 525.433 626.938 525.261 626.121 525.261C625.328 525.261 624.6 525.433 623.937 525.776C623.274 526.108 622.742 526.569 622.339 527.161C621.949 527.753 621.741 528.446 621.718 529.239V535.062C621.718 535.938 621.901 536.72 622.268 537.406C622.635 538.093 623.162 538.631 623.848 539.022C624.535 539.413 625.364 539.608 626.334 539.608C627.009 539.608 627.624 539.513 628.181 539.324C628.749 539.134 629.234 538.862 629.637 538.507C630.039 538.14 630.335 537.702 630.525 537.193H639.473C639.166 539.087 638.438 540.732 637.29 542.129C636.141 543.514 634.62 544.591 632.726 545.361C630.844 546.118 628.642 546.497 626.121 546.497ZM656.012 546.497C653.053 546.497 650.52 545.911 648.413 544.739C646.306 543.556 644.69 541.91 643.565 539.803C642.441 537.684 641.879 535.228 641.879 532.435C641.879 529.641 642.441 527.191 643.565 525.084C644.69 522.965 646.306 521.32 648.413 520.148C650.52 518.964 653.053 518.372 656.012 518.372C658.687 518.372 661.001 518.857 662.955 519.828C664.92 520.787 666.441 522.148 667.518 523.912C668.595 525.664 669.139 527.723 669.151 530.091H660.06C659.93 528.659 659.516 527.57 658.818 526.824C658.131 526.066 657.243 525.688 656.154 525.688C655.302 525.688 654.556 525.936 653.917 526.433C653.278 526.919 652.781 527.658 652.425 528.653C652.07 529.635 651.893 530.872 651.893 532.364C651.893 533.855 652.07 535.098 652.425 536.092C652.781 537.075 653.278 537.815 653.917 538.312C654.556 538.797 655.302 539.04 656.154 539.04C656.876 539.04 657.515 538.874 658.072 538.543C658.628 538.199 659.078 537.702 659.421 537.051C659.776 536.388 659.989 535.583 660.06 534.636H669.151C669.116 537.039 668.565 539.134 667.5 540.922C666.435 542.697 664.925 544.071 662.972 545.041C661.031 546.012 658.711 546.497 656.012 546.497ZM682.396 530.659V546H672.595V509.636H682.041V523.912H682.325C682.941 522.172 683.965 520.817 685.397 519.846C686.829 518.863 688.552 518.372 690.564 518.372C692.493 518.372 694.168 518.81 695.589 519.686C697.021 520.562 698.128 521.769 698.909 523.308C699.702 524.847 700.093 526.611 700.081 528.599V546H690.28V530.659C690.292 529.31 689.954 528.25 689.268 527.481C688.593 526.711 687.628 526.327 686.374 526.327C685.58 526.327 684.882 526.504 684.278 526.859C683.687 527.203 683.225 527.7 682.893 528.351C682.574 528.99 682.408 529.759 682.396 530.659ZM717.459 546.497C714.499 546.497 711.966 545.911 709.859 544.739C707.752 543.556 706.136 541.91 705.012 539.803C703.887 537.684 703.325 535.228 703.325 532.435C703.325 529.641 703.887 527.191 705.012 525.084C706.136 522.965 707.752 521.32 709.859 520.148C711.966 518.964 714.499 518.372 717.459 518.372C720.134 518.372 722.448 518.857 724.401 519.828C726.366 520.787 727.887 522.148 728.964 523.912C730.041 525.664 730.586 527.723 730.598 530.091H721.507C721.377 528.659 720.962 527.57 720.264 526.824C719.577 526.066 718.69 525.688 717.601 525.688C716.748 525.688 716.003 525.936 715.363 526.433C714.724 526.919 714.227 527.658 713.872 528.653C713.517 529.635 713.339 530.872 713.339 532.364C713.339 533.855 713.517 535.098 713.872 536.092C714.227 537.075 714.724 537.815 715.363 538.312C716.003 538.797 716.748 539.04 717.601 539.04C718.323 539.04 718.962 538.874 719.518 538.543C720.075 538.199 720.524 537.702 720.868 537.051C721.223 536.388 721.436 535.583 721.507 534.636H730.598C730.562 537.039 730.012 539.134 728.947 540.922C727.881 542.697 726.372 544.071 724.419 545.041C722.478 546.012 720.157 546.497 717.459 546.497ZM741.641 546.426C739.901 546.426 738.362 546.142 737.025 545.574C735.699 544.994 734.657 544.118 733.9 542.946C733.142 541.774 732.763 540.283 732.763 538.472C732.763 536.98 733.018 535.708 733.527 534.654C734.036 533.589 734.746 532.719 735.657 532.044C736.569 531.369 737.628 530.854 738.836 530.499C740.055 530.144 741.369 529.913 742.777 529.807C744.304 529.688 745.53 529.546 746.453 529.381C747.388 529.203 748.063 528.96 748.477 528.653C748.891 528.333 749.098 527.913 749.098 527.392V527.321C749.098 526.611 748.826 526.066 748.282 525.688C747.737 525.309 747.039 525.119 746.187 525.119C745.251 525.119 744.488 525.326 743.896 525.741C743.316 526.143 742.967 526.765 742.848 527.605H733.829C733.947 525.948 734.474 524.421 735.409 523.024C736.356 521.616 737.735 520.491 739.546 519.651C741.357 518.798 743.618 518.372 746.329 518.372C748.282 518.372 750.034 518.603 751.584 519.065C753.135 519.514 754.455 520.148 755.544 520.964C756.633 521.769 757.461 522.716 758.03 523.805C758.61 524.883 758.9 526.054 758.9 527.321V546H749.738V542.165H749.525C748.98 543.183 748.317 544.005 747.536 544.633C746.767 545.26 745.885 545.716 744.89 546C743.908 546.284 742.825 546.426 741.641 546.426ZM744.837 540.247C745.583 540.247 746.281 540.093 746.932 539.786C747.595 539.478 748.134 539.034 748.548 538.454C748.962 537.874 749.169 537.17 749.169 536.341V534.068C748.909 534.175 748.631 534.275 748.335 534.37C748.051 534.465 747.743 534.554 747.412 534.636C747.092 534.719 746.749 534.796 746.382 534.867C746.027 534.938 745.654 535.003 745.263 535.062C744.506 535.181 743.884 535.376 743.399 535.648C742.925 535.909 742.57 536.234 742.334 536.625C742.109 537.004 741.996 537.43 741.996 537.903C741.996 538.661 742.263 539.241 742.795 539.643C743.328 540.046 744.008 540.247 744.837 540.247ZM762.983 546V518.727H772.287V523.912H772.571C773.139 522.207 774.11 520.858 775.483 519.864C776.856 518.869 778.489 518.372 780.383 518.372C782.301 518.372 783.952 518.881 785.337 519.899C786.722 520.905 787.557 522.243 787.841 523.912H788.125C788.586 522.243 789.569 520.905 791.072 519.899C792.575 518.881 794.339 518.372 796.363 518.372C798.979 518.372 801.098 519.213 802.72 520.893C804.353 522.574 805.17 524.812 805.17 527.605V546H795.369V530.091C795.369 528.895 795.067 527.96 794.464 527.286C793.86 526.599 793.049 526.256 792.031 526.256C791.025 526.256 790.226 526.599 789.634 527.286C789.054 527.96 788.764 528.895 788.764 530.091V546H779.389V530.091C779.389 528.895 779.087 527.96 778.483 527.286C777.88 526.599 777.069 526.256 776.051 526.256C775.376 526.256 774.796 526.41 774.311 526.717C773.825 527.025 773.447 527.469 773.174 528.049C772.914 528.617 772.784 529.298 772.784 530.091V546H762.983ZM809.404 556.227V518.727H819.134V523.486H819.347C819.702 522.562 820.223 521.716 820.91 520.947C821.596 520.165 822.449 519.544 823.467 519.082C824.485 518.609 825.668 518.372 827.018 518.372C828.817 518.372 830.527 518.852 832.149 519.81C833.783 520.769 835.108 522.278 836.126 524.338C837.156 526.398 837.671 529.073 837.671 532.364C837.671 535.512 837.18 538.122 836.197 540.194C835.227 542.265 833.925 543.81 832.291 544.828C830.67 545.846 828.888 546.355 826.947 546.355C825.668 546.355 824.526 546.148 823.52 545.734C822.526 545.308 821.673 544.733 820.963 544.011C820.265 543.277 819.726 542.449 819.347 541.526H819.205V556.227H809.404ZM818.992 532.364C818.992 533.689 819.164 534.838 819.507 535.808C819.862 536.767 820.359 537.513 820.999 538.045C821.65 538.566 822.425 538.827 823.325 538.827C824.224 538.827 824.988 538.572 825.615 538.063C826.254 537.542 826.74 536.803 827.071 535.844C827.414 534.873 827.586 533.713 827.586 532.364C827.586 531.014 827.414 529.86 827.071 528.901C826.74 527.931 826.254 527.191 825.615 526.682C824.988 526.161 824.224 525.901 823.325 525.901C822.425 525.901 821.65 526.161 820.999 526.682C820.359 527.191 819.862 527.931 819.507 528.901C819.164 529.86 818.992 531.014 818.992 532.364ZM858.862 534.068V518.727H868.663V546H859.359V540.815H859.075C858.483 542.555 857.447 543.917 855.968 544.899C854.488 545.87 852.73 546.355 850.694 546.355C848.788 546.355 847.119 545.917 845.687 545.041C844.267 544.165 843.16 542.958 842.367 541.419C841.586 539.88 841.189 538.116 841.177 536.128V518.727H850.978V534.068C850.99 535.418 851.333 536.477 852.008 537.246C852.695 538.016 853.654 538.401 854.885 538.401C855.701 538.401 856.406 538.229 856.998 537.886C857.601 537.531 858.063 537.033 858.382 536.394C858.714 535.743 858.874 534.968 858.862 534.068ZM897.977 527.605H888.957C888.91 527.049 888.714 526.569 888.371 526.167C888.028 525.764 887.584 525.457 887.039 525.244C886.507 525.019 885.915 524.906 885.264 524.906C884.423 524.906 883.701 525.06 883.098 525.368C882.494 525.676 882.198 526.114 882.21 526.682C882.198 527.084 882.37 527.457 882.725 527.8C883.092 528.144 883.796 528.41 884.838 528.599L890.377 529.594C893.171 530.103 895.248 530.961 896.61 532.168C897.983 533.364 898.675 534.968 898.687 536.98C898.675 538.921 898.095 540.608 896.947 542.04C895.811 543.461 894.254 544.562 892.277 545.343C890.312 546.112 888.069 546.497 885.548 546.497C881.381 546.497 878.12 545.645 875.765 543.94C873.421 542.236 872.113 539.987 871.841 537.193H881.571C881.701 538.057 882.127 538.726 882.849 539.2C883.583 539.661 884.506 539.892 885.619 539.892C886.519 539.892 887.258 539.738 887.838 539.43C888.43 539.123 888.732 538.685 888.744 538.116C888.732 537.596 888.472 537.181 887.963 536.874C887.466 536.566 886.684 536.317 885.619 536.128L880.789 535.276C878.008 534.79 875.924 533.867 874.539 532.506C873.154 531.144 872.468 529.393 872.48 527.25C872.468 525.356 872.965 523.752 873.971 522.438C874.989 521.112 876.439 520.106 878.321 519.42C880.215 518.721 882.458 518.372 885.051 518.372C888.993 518.372 892.1 519.189 894.373 520.822C896.657 522.456 897.859 524.717 897.977 527.605Z" fill="white"/>
<path d="M31.9336 76L34.668 59.6914H23.2422L20.5078 76H7.12891L9.86328 59.6914H0.585938L2.83203 46.2148H12.0117L13.8672 35.082H4.58984L6.83594 21.6055H16.1133L18.75 5.29688H32.1289L29.4922 21.6055H40.918L43.5547 5.29688H57.0312L54.3945 21.6055H63.5742L61.2305 35.082H52.1484L50.293 46.2148H59.5703L57.2266 59.6914H48.1445L45.4102 76H31.9336ZM25.3906 46.2148H36.8164L38.6719 35.082H27.2461L25.3906 46.2148ZM114.927 31.5664C114.341 24.9258 109.849 20.5312 102.33 20.5312C92.5641 20.5312 86.9977 28.0508 86.9977 40.6484C86.9977 53.9297 92.6617 60.7656 102.232 60.7656C109.361 60.7656 113.951 56.8594 114.927 50.6094L133.775 50.8047C132.798 62.9141 122.154 76.9766 101.841 76.9766C82.4078 76.9766 67.857 64.0859 67.857 40.6484C67.857 17.1133 82.7984 4.32031 101.841 4.32031C119.42 4.32031 132.213 14.1836 133.775 31.5664H114.927ZM167.648 76.9766C150.558 76.9766 140.304 65.9414 140.304 49.6328C140.304 33.3242 150.558 22.2891 167.648 22.2891C184.738 22.2891 194.894 33.3242 194.894 49.6328C194.894 65.9414 184.738 76.9766 167.648 76.9766ZM167.745 63.3047C172.921 63.3047 176.046 57.9336 176.046 49.5352C176.046 41.0391 172.921 35.7656 167.745 35.7656C162.374 35.7656 159.152 41.0391 159.152 49.5352C159.152 57.9336 162.374 63.3047 167.745 63.3047ZM227.595 76.9766C210.505 76.9766 200.251 65.9414 200.251 49.6328C200.251 33.3242 210.505 22.2891 227.595 22.2891C244.684 22.2891 254.841 33.3242 254.841 49.6328C254.841 65.9414 244.684 76.9766 227.595 76.9766ZM227.692 63.3047C232.868 63.3047 235.993 57.9336 235.993 49.5352C235.993 41.0391 232.868 35.7656 227.692 35.7656C222.321 35.7656 219.098 41.0391 219.098 49.5352C219.098 57.9336 222.321 63.3047 227.692 63.3047ZM280.705 5.29688V76H262.248V5.29688H280.705ZM289.773 76V5.29688H308.328V34.2031H309.305L331.18 5.29688H352.957L328.738 36.8398L353.445 76H331.18L314.871 49.1445L308.328 57.543V76H289.773ZM361.732 76V22.9727H380.189V76H361.732ZM370.912 17.2109C365.834 17.2109 361.732 13.4023 361.732 8.71484C361.732 4.02734 365.834 0.21875 370.912 0.21875C375.99 0.21875 380.091 4.02734 380.091 8.71484C380.091 13.4023 375.99 17.2109 370.912 17.2109ZM408.691 76.6836C397.265 76.6836 387.695 67.7969 387.695 49.5352C387.695 30.3945 397.851 22.2891 408.495 22.2891C416.503 22.2891 421.386 26.8789 423.437 32.1523H423.73V5.29688H442.187V76H423.925V67.3086H423.437C421.288 72.582 416.308 76.6836 408.691 76.6836ZM415.331 62.5234C420.898 62.5234 424.218 57.4453 424.218 49.4375C424.218 41.4297 420.898 36.5469 415.331 36.5469C409.862 36.5469 406.737 41.4297 406.737 49.4375C406.737 57.543 409.862 62.5234 415.331 62.5234ZM482.212 40.0625C481.821 36.7422 478.696 34.6914 474.79 34.6914C471.274 34.6914 468.442 36.0586 468.54 38.4023C468.442 40.0625 469.712 41.5273 473.911 42.3086L484.458 44.2617C495.298 46.2148 500.473 50.8047 500.571 58.6172C500.473 69.8477 489.829 76.9766 475.278 76.9766C459.263 76.9766 449.985 69.8477 448.911 59.1055H467.27C467.856 62.5234 470.884 64.4766 475.376 64.4766C479.087 64.4766 481.723 63.1094 481.821 60.7656C481.723 58.6172 479.868 57.4453 475.571 56.6641L466.294 55.0039C455.552 53.0508 450.18 47.6797 450.18 39.4766C450.18 28.5391 459.458 22.2891 474.399 22.2891C489.438 22.2891 498.716 28.9297 499.204 40.0625H482.212ZM550.166 76V89.1836H502.413V76H550.166ZM615.191 5.29688V76H599.664L573.395 37.8164H572.906V76H554.352V5.29688H570.172L596.051 43.2852H596.637V5.29688H615.191ZM649.552 76.9766C632.658 76.9766 622.306 66.7227 622.306 49.6328C622.306 33.2266 632.755 22.2891 649.162 22.2891C664.884 22.2891 675.334 32.4453 675.334 49.4375V53.832H640.568V54.5156C640.568 59.9844 644.084 63.8906 649.943 63.8906C653.947 63.8906 657.17 62.1328 658.341 59.1055H675.236C673.38 70.043 664.005 76.9766 649.552 76.9766ZM640.568 43.4805H658.244C658.146 38.6953 654.435 35.375 649.552 35.375C644.621 35.375 640.714 38.7441 640.568 43.4805ZM734.109 22.9727L716.237 76H694.851L676.98 22.9727H696.413L705.3 58.4219H705.788L714.773 22.9727H734.109ZM762.708 76.9766C745.813 76.9766 735.462 66.7227 735.462 49.6328C735.462 33.2266 745.911 22.2891 762.317 22.2891C778.04 22.2891 788.489 32.4453 788.489 49.4375V53.832H753.723V54.5156C753.723 59.9844 757.239 63.8906 763.098 63.8906C767.102 63.8906 770.325 62.1328 771.497 59.1055H788.391C786.536 70.043 777.161 76.9766 762.708 76.9766ZM753.723 43.4805H771.399C771.302 38.6953 767.591 35.375 762.708 35.375C757.776 35.375 753.87 38.7441 753.723 43.4805ZM795.799 76V22.9727H813.67V32.9336H814.256C816.209 25.6094 820.604 22.2891 826.366 22.2891C828.026 22.2891 829.686 22.4844 831.151 22.875V38.793C829.295 38.1094 826.17 37.8164 824.217 37.8164C818.455 37.8164 814.256 41.918 814.256 48.0703V76H795.799ZM863.559 76H836.703V5.29688H863.363C885.141 5.29688 898.715 18.5781 898.715 40.6484C898.715 62.7188 885.141 76 863.559 76ZM855.258 60.1797H862.875C873.812 60.1797 879.965 55.5898 879.965 40.6484C879.965 25.707 873.812 21.1172 862.387 21.1172H855.258V60.1797ZM907.392 76V22.9727H925.849V76H907.392ZM916.572 17.2109C911.494 17.2109 907.392 13.4023 907.392 8.71484C907.392 4.02734 911.494 0.21875 916.572 0.21875C921.65 0.21875 925.752 4.02734 925.752 8.71484C925.752 13.4023 921.65 17.2109 916.572 17.2109ZM960.308 76.9766C943.413 76.9766 933.062 66.7227 933.062 49.6328C933.062 33.2266 943.511 22.2891 959.917 22.2891C975.64 22.2891 986.089 32.4453 986.089 49.4375V53.832H951.323V54.5156C951.323 59.9844 954.839 63.8906 960.698 63.8906C964.702 63.8906 967.925 62.1328 969.097 59.1055H985.991C984.136 70.043 974.761 76.9766 960.308 76.9766ZM951.323 43.4805H968.999C968.902 38.6953 965.191 35.375 960.308 35.375C955.376 35.375 951.47 38.7441 951.323 43.4805Z" fill="white"/>
<path d="M31.9336 172L34.668 155.691H23.2422L20.5078 172H7.12891L9.86328 155.691H0.585938L2.83203 142.215H12.0117L13.8672 131.082H4.58984L6.83594 117.605H16.1133L18.75 101.297H32.1289L29.4922 117.605H40.918L43.5547 101.297H57.0312L54.3945 117.605H63.5742L61.2305 131.082H52.1484L50.293 142.215H59.5703L57.2266 155.691H48.1445L45.4102 172H31.9336ZM25.3906 142.215H36.8164L38.6719 131.082H27.2461L25.3906 142.215ZM86.0211 172L65.2203 101.297H85.9234L95.8844 145.535H96.4703L108.091 101.297H124.498L136.216 145.73H136.802L146.763 101.297H167.466L146.666 172H128.795L116.588 131.57H116.002L103.795 172H86.0211ZM173.214 172V101.297H223.702V116.336H191.769V129.129H221.066V144.168H191.769V156.961H223.605V172H173.214ZM275.739 172V185.184H227.985V172H275.739ZM279.924 172V101.297H310.002C325.823 101.297 336.174 110.281 336.174 125.223C336.174 134.988 331.682 141.922 324.065 145.535L338.518 172H318.303L305.803 148.465H298.479V172H279.924ZM298.479 133.914H305.705C312.737 133.914 316.741 131.375 316.741 125.223C316.741 118.973 312.737 116.141 305.705 116.141H298.479V133.914ZM386.844 172V185.184H339.09V172H386.844ZM433.705 127.566C433.119 120.926 428.627 116.531 421.107 116.531C411.341 116.531 405.775 124.051 405.775 136.648C405.775 149.93 411.439 156.766 421.009 156.766C428.138 156.766 432.728 152.859 433.705 146.609L452.552 146.805C451.576 158.914 440.931 172.977 420.619 172.977C401.185 172.977 386.634 160.086 386.634 136.648C386.634 113.113 401.576 100.32 420.619 100.32C438.197 100.32 450.99 110.184 452.552 127.566H433.705ZM486.425 172.977C469.335 172.977 459.081 161.941 459.081 145.633C459.081 129.324 469.335 118.289 486.425 118.289C503.515 118.289 513.671 129.324 513.671 145.633C513.671 161.941 503.515 172.977 486.425 172.977ZM486.523 159.305C491.698 159.305 494.823 153.934 494.823 145.535C494.823 137.039 491.698 131.766 486.523 131.766C481.152 131.766 477.929 137.039 477.929 145.535C477.929 153.934 481.152 159.305 486.523 159.305ZM546.372 172.977C529.282 172.977 519.028 161.941 519.028 145.633C519.028 129.324 529.282 118.289 546.372 118.289C563.462 118.289 573.618 129.324 573.618 145.633C573.618 161.941 563.462 172.977 546.372 172.977ZM546.47 159.305C551.645 159.305 554.77 153.934 554.77 145.535C554.77 137.039 551.645 131.766 546.47 131.766C541.098 131.766 537.876 137.039 537.876 145.535C537.876 153.934 541.098 159.305 546.47 159.305ZM580.83 172V101.297H599.385V156.961H628.194V172H580.83ZM635.602 172V101.297H654.156V130.203H655.133L677.008 101.297H698.785L674.566 132.84L699.273 172H677.008L660.699 145.145L654.156 153.543V172H635.602ZM707.56 172V118.973H726.017V172H707.56ZM716.74 113.211C711.662 113.211 707.56 109.402 707.56 104.715C707.56 100.027 711.662 96.2188 716.74 96.2188C721.818 96.2188 725.92 100.027 725.92 104.715C725.92 109.402 721.818 113.211 716.74 113.211ZM754.519 172.684C743.093 172.684 733.523 163.797 733.523 145.535C733.523 126.395 743.679 118.289 754.323 118.289C762.331 118.289 767.214 122.879 769.265 128.152H769.558V101.297H788.015V172H769.753V163.309H769.265C767.116 168.582 762.136 172.684 754.519 172.684ZM761.159 158.523C766.726 158.523 770.046 153.445 770.046 145.438C770.046 137.43 766.726 132.547 761.159 132.547C755.691 132.547 752.566 137.43 752.566 145.438C752.566 153.543 755.691 158.523 761.159 158.523ZM835.071 123.172C834.68 118.387 831.555 115.652 825.208 115.652C819.055 115.652 816.321 117.996 816.223 121.316C816.126 124.93 819.446 126.98 825.989 128.348L831.848 129.715C847.083 132.938 853.821 140.359 853.919 151.199C853.821 165.066 843.177 172.879 825.305 172.879C807.044 172.879 795.227 164.871 795.032 147.488H812.805C813.098 154.031 817.688 157.547 825.013 157.547C831.36 157.547 834.778 154.91 834.876 151.199C834.778 147.781 831.946 145.828 824.036 144.07L816.907 142.508C804.505 139.773 796.888 133.621 796.888 122.684C796.79 109.305 808.606 100.32 825.208 100.32C842.2 100.32 852.845 109.402 852.942 123.172H835.071Z" fill="white"/>
</svg>
