<svg width="1915" height="701" viewBox="0 0 1915 701" fill="none" xmlns="http://www.w3.org/2000/svg">
<rect width="541" height="74" transform="translate(1374)" fill="#FF00B2"/>
<path d="M1501.41 56L1507.37 19.6364H1514.47L1508.51 56H1501.41ZM1485.28 47.6903L1486.49 40.5881H1515.75L1514.55 47.6903H1485.28ZM1488.62 56L1494.59 19.6364H1501.69L1495.72 56H1488.62ZM1487.34 35.0483L1488.55 27.946H1517.81L1516.61 35.0483H1487.34ZM1555.37 14.15H1561.72V60.45H1555.37V14.15ZM1549.32 32H1557.02V37.3H1549.32V32ZM1545.02 14.95H1551.22V58.25H1545.02V14.95ZM1523.87 19.25H1530.52V46H1523.87V19.25ZM1523.87 43.5H1527.07C1531.52 43.5 1536.72 43.25 1542.47 42.15L1543.12 47.85C1537.07 48.95 1531.77 49.2 1527.07 49.2H1523.87V43.5ZM1583.07 15.5C1590.12 15.5 1595.42 19.9 1595.42 26.1C1595.42 32.25 1590.12 36.65 1583.07 36.65C1576.02 36.65 1570.72 32.25 1570.72 26.1C1570.72 19.9 1576.02 15.5 1583.07 15.5ZM1583.07 20.9C1579.67 20.9 1577.12 22.8 1577.12 26.1C1577.12 29.4 1579.67 31.3 1583.07 31.3C1586.47 31.3 1588.97 29.4 1588.97 26.1C1588.97 22.8 1586.47 20.9 1583.07 20.9ZM1601.82 14.15H1608.52V37.3H1601.82V14.15ZM1577.62 39.2H1608.52V51.9H1584.22V57.5H1577.72V47.1H1601.92V44.35H1577.62V39.2ZM1577.72 54.8H1609.67V59.95H1577.72V54.8ZM1622.17 16.65H1627.62V20.75C1627.62 29.95 1623.62 38.05 1614.82 41.1L1611.27 35.85C1619.02 33.25 1622.17 27.05 1622.17 20.75V16.65ZM1623.52 16.65H1628.92V21.4C1628.92 26.95 1632.02 32.35 1639.27 34.6L1635.82 39.75C1627.47 36.95 1623.52 29.75 1623.52 21.4V16.65ZM1641.82 14.15H1648.47V41.5H1641.82V14.15ZM1646.62 24.85H1654.62V30.35H1646.62V24.85ZM1633.37 42.55C1642.97 42.55 1649.02 45.9 1649.02 51.5C1649.02 57.15 1642.97 60.45 1633.37 60.45C1623.72 60.45 1617.67 57.15 1617.67 51.5C1617.67 45.9 1623.72 42.55 1633.37 42.55ZM1633.37 47.7C1627.47 47.7 1624.27 48.95 1624.27 51.5C1624.27 54.1 1627.47 55.3 1633.37 55.3C1639.27 55.3 1642.42 54.1 1642.42 51.5C1642.42 48.95 1639.27 47.7 1633.37 47.7ZM1659.98 36.6H1701.88V41.9H1659.98V36.6ZM1677.53 30.6H1684.13V38.9H1677.53V30.6ZM1677.43 14.95H1683.13V16.35C1683.13 24.9 1676.33 31.6 1664.53 33.3L1662.08 28.1C1672.48 26.85 1677.43 21.55 1677.43 16.35V14.95ZM1678.53 14.95H1684.23V16.35C1684.23 21.75 1689.08 26.85 1699.58 28.1L1697.13 33.3C1685.33 31.55 1678.53 25.1 1678.53 16.35V14.95ZM1664.63 45.15H1696.78V60.45H1690.13V50.35H1664.63V45.15ZM1707.98 36.6H1749.83V41.8H1707.98V36.6ZM1725.53 29.05H1732.18V38.2H1725.53V29.05ZM1712.58 44.95H1744.88V60.6H1738.28V50.2H1712.58V44.95ZM1713.03 27.25H1745.28V32.55H1713.03V27.25ZM1713.03 16H1744.88V21.25H1719.68V30.1H1713.03V16ZM1773.28 28.6H1785.48V33.95H1773.28V28.6ZM1760.68 17.7H1766.08V24.4C1766.08 36.05 1762.13 46.8 1753.43 51.15L1749.28 45.8C1757.18 42.15 1760.68 33.2 1760.68 24.4V17.7ZM1762.08 17.7H1767.38V24.4C1767.38 33.2 1770.73 41.65 1778.38 45.05L1774.43 50.35C1765.73 46.15 1762.08 35.95 1762.08 24.4V17.7ZM1782.18 14.1H1788.78V60.55H1782.18V14.1ZM1802.79 41.9H1809.34V45.8H1827.89V41.9H1834.49V59.95H1802.79V41.9ZM1809.34 50.75V54.75H1827.89V50.75H1809.34ZM1797.89 34.35H1839.74V39.6H1797.89V34.35ZM1815.44 14.65H1821.14V16.05C1821.14 24.1 1814.24 30.75 1802.29 32.3L1799.94 27.15C1810.39 25.9 1815.44 20.75 1815.44 16.05V14.65ZM1816.54 14.65H1822.24V16.05C1822.24 20.7 1827.29 25.9 1837.69 27.15L1835.34 32.3C1823.39 30.75 1816.54 24.05 1816.54 16.05V14.65ZM1841.93 17.5H1861.73V22.85H1841.93V17.5ZM1847.63 28.3H1854.23V39.9H1847.63V28.3ZM1859.13 17.5H1865.68V20.4C1865.68 23.65 1865.68 28.25 1864.58 34L1858.13 33.3C1859.13 27.6 1859.13 23.6 1859.13 20.4V17.5ZM1870.18 14.15H1876.88V48.8H1870.18V14.15ZM1874.23 28.25H1882.38V33.7H1874.23V28.25ZM1845.98 54.35H1878.33V59.65H1845.98V54.35ZM1845.98 45.7H1852.63V56H1845.98V45.7ZM1839.83 42.6L1839.23 37.35C1847.23 37.35 1858.38 37.2 1867.68 35.9L1868.08 40.6C1858.53 42.4 1847.78 42.6 1839.83 42.6Z" fill="white"/>
<path d="M0.5 691V109.182H251.636C294.818 109.182 332.602 117.042 364.989 132.761C397.375 148.481 422.564 171.114 440.557 200.659C458.549 230.205 467.545 265.621 467.545 306.909C467.545 348.576 458.265 383.708 439.705 412.307C421.333 440.905 395.481 462.496 362.148 477.08C329.004 491.663 290.273 498.955 245.955 498.955H95.9545V376.227H214.136C232.697 376.227 248.511 373.955 261.58 369.409C274.837 364.674 284.97 357.193 291.977 346.966C299.174 336.739 302.773 323.386 302.773 306.909C302.773 290.242 299.174 276.701 291.977 266.284C284.97 255.678 274.837 247.913 261.58 242.989C248.511 237.875 232.697 235.318 214.136 235.318H158.455V691H0.5ZM341.409 423.955L486.864 691H315.273L173.227 423.955H341.409ZM710.864 698.955C664.273 698.955 624.121 690.053 590.409 672.25C556.886 654.258 531.034 628.5 512.852 594.977C494.86 561.265 485.864 520.924 485.864 473.955C485.864 428.879 494.955 389.485 513.136 355.773C531.318 322.061 556.981 295.83 590.125 277.08C623.269 258.33 662.379 248.955 707.455 248.955C740.409 248.955 770.239 254.068 796.943 264.295C823.648 274.523 846.47 289.39 865.409 308.898C884.348 328.216 898.932 351.701 909.159 379.352C919.386 407.004 924.5 438.159 924.5 472.818V509.182H534.727V422.818H780.182C779.992 410.318 776.773 399.333 770.523 389.864C764.462 380.205 756.223 372.723 745.807 367.42C735.58 361.928 723.932 359.182 710.864 359.182C698.174 359.182 686.527 361.928 675.92 367.42C665.314 372.723 656.792 380.11 650.352 389.58C644.102 399.049 640.788 410.129 640.409 422.818V516C640.409 530.015 643.345 542.515 649.216 553.5C655.087 564.485 663.515 573.102 674.5 579.352C685.485 585.602 698.742 588.727 714.273 588.727C725.068 588.727 734.917 587.212 743.818 584.182C752.909 581.152 760.674 576.795 767.114 571.114C773.553 565.242 778.288 558.235 781.318 550.091H924.5C919.576 580.394 907.928 606.72 889.557 629.068C871.186 651.227 846.848 668.462 816.545 680.773C786.432 692.894 751.205 698.955 710.864 698.955ZM960.219 691V109.182H1117.04V330.773H1119.31C1124.99 316 1133.32 302.458 1144.31 290.148C1155.29 277.648 1168.93 267.705 1185.22 260.318C1201.51 252.742 1220.45 248.955 1242.04 248.955C1270.82 248.955 1298.19 256.625 1324.14 271.966C1350.28 287.307 1371.49 311.455 1387.78 344.409C1404.25 377.364 1412.49 420.167 1412.49 472.818C1412.49 523.197 1404.63 564.958 1388.91 598.102C1373.38 631.246 1352.55 655.962 1326.41 672.25C1300.46 688.538 1271.96 696.682 1240.9 696.682C1220.45 696.682 1202.17 693.367 1186.07 686.739C1170.16 679.92 1156.53 670.735 1145.16 659.182C1133.99 647.439 1125.37 634.182 1119.31 619.409H1115.9V691H960.219ZM1113.63 472.818C1113.63 494.03 1116.37 512.402 1121.87 527.932C1127.55 543.273 1135.5 555.205 1145.73 563.727C1156.15 572.061 1168.55 576.227 1182.95 576.227C1197.34 576.227 1209.56 572.155 1219.59 564.011C1229.82 555.678 1237.59 543.841 1242.89 528.5C1248.38 512.97 1251.13 494.409 1251.13 472.818C1251.13 451.227 1248.38 432.761 1242.89 417.42C1237.59 401.89 1229.82 390.053 1219.59 381.909C1209.56 373.576 1197.34 369.409 1182.95 369.409C1168.55 369.409 1156.15 373.576 1145.73 381.909C1135.5 390.053 1127.55 401.89 1121.87 417.42C1116.37 432.761 1113.63 451.227 1113.63 472.818ZM1452.12 691V254.636H1608.93V691H1452.12ZM1530.53 209.182C1509.31 209.182 1491.13 202.174 1475.98 188.159C1460.83 174.144 1453.25 157.288 1453.25 137.591C1453.25 117.894 1460.83 101.038 1475.98 87.0227C1491.13 73.0076 1509.31 66 1530.53 66C1551.93 66 1570.11 73.0076 1585.07 87.0227C1600.22 101.038 1607.8 117.894 1607.8 137.591C1607.8 157.288 1600.22 174.144 1585.07 188.159C1570.11 202.174 1551.93 209.182 1530.53 209.182ZM1923.06 254.636V368.273H1635.56V254.636H1923.06ZM1691.24 150.091H1848.06V550.659C1848.06 556.72 1849.1 561.833 1851.19 566C1853.27 569.977 1856.49 573.008 1860.85 575.091C1865.2 576.985 1870.79 577.932 1877.61 577.932C1882.34 577.932 1887.84 577.364 1894.09 576.227C1900.52 575.091 1905.26 574.144 1908.29 573.386L1931.02 683.614C1924.01 685.697 1913.97 688.254 1900.9 691.284C1888.02 694.314 1872.68 696.303 1854.88 697.25C1818.9 699.144 1788.69 695.451 1764.26 686.17C1739.82 676.701 1721.45 661.833 1709.14 641.568C1696.83 621.303 1690.87 595.924 1691.24 565.432V150.091Z" fill="white"/>
</svg>