<svg width="40" height="40" viewBox="0 0 75 83" fill="none" xmlns="http://www.w3.org/2000/svg">
<path d="M28.125 65.7098C12.5 70.8973 12.5 57.064 6.25 55.3348M50 76.0848V62.7011C50.1172 61.052 49.9159 59.3943 49.4094 57.838C48.9029 56.2817 48.1029 54.8625 47.0625 53.6748C56.875 52.4644 67.1875 48.349 67.1875 29.4665C67.1867 24.6381 65.5084 19.9948 62.5 16.4978C63.9245 12.2734 63.8238 7.60414 62.2187 3.45985C62.2187 3.45985 58.5313 2.24943 50 8.57818C42.8375 6.42994 35.2875 6.42994 28.125 8.57818C19.5937 2.24943 15.9063 3.45985 15.9063 3.45985C14.3012 7.60414 14.2005 12.2734 15.625 16.4978C12.5941 20.0208 10.9141 24.706 10.9375 29.5703C10.9375 48.3144 21.25 52.4298 31.0625 53.7786C30.0344 54.9543 29.2414 56.3565 28.7353 57.8937C28.2292 59.431 28.0213 61.069 28.125 62.7011V76.0848" stroke="#1E1E1E" stroke-width="4" stroke-linecap="round" stroke-linejoin="round"/>
</svg>
