<svg width="40" height="40" viewBox="0 0 75 83" fill="none" xmlns="http://www.w3.org/2000/svg">
<path d="M54.6875 22.4766H54.7188M21.875 6.91406H53.125C61.7544 6.91406 68.75 14.6558 68.75 24.2057V58.7891C68.75 68.339 61.7544 76.0807 53.125 76.0807H21.875C13.2456 76.0807 6.25 68.339 6.25 58.7891V24.2057C6.25 14.6558 13.2456 6.91406 21.875 6.91406ZM50 39.3186C50.3857 42.1968 49.9414 45.1363 48.7305 47.719C47.5196 50.3017 45.6036 52.396 43.2551 53.7042C40.9066 55.0123 38.2451 55.4677 35.6493 55.0054C33.0535 54.5432 30.6555 53.1869 28.7964 51.1294C26.9372 49.072 25.7117 46.4182 25.294 43.5455C24.8763 40.6728 25.2877 37.7274 26.4698 35.1284C27.6518 32.5294 29.5443 30.4091 31.8781 29.069C34.2118 27.7289 36.868 27.2373 39.4688 27.6641C42.1216 28.0994 44.5777 29.4675 46.474 31.5661C48.3704 33.6648 49.6066 36.3828 50 39.3186Z" stroke="#1E1E1E" stroke-width="4" stroke-linecap="round" stroke-linejoin="round"/>
</svg>
