<svg width="906" height="304" viewBox="0 0 906 304" fill="none" xmlns="http://www.w3.org/2000/svg">
<path d="M0.390625 15.625H106.445C128.19 15.625 146.875 18.8802 162.5 25.3906C178.255 31.901 190.365 41.5365 198.828 54.2969C207.292 67.0573 211.523 82.7474 211.523 101.367C211.523 116.602 208.919 129.688 203.711 140.625C198.633 151.432 191.406 160.482 182.031 167.773C172.786 174.935 161.914 180.664 149.414 184.961L130.859 194.727H38.6719L38.2812 149.023H106.836C117.122 149.023 125.651 147.201 132.422 143.555C139.193 139.909 144.271 134.831 147.656 128.32C151.172 121.81 152.93 114.258 152.93 105.664C152.93 96.5495 151.237 88.6719 147.852 82.0312C144.466 75.3906 139.323 70.3125 132.422 66.7969C125.521 63.2812 116.862 61.5234 106.445 61.5234H58.9844V300H0.390625V15.625ZM159.375 300L94.5312 173.242L156.445 172.852L222.07 297.266V300H159.375ZM350.199 303.906C333.793 303.906 319.08 301.302 306.059 296.094C293.038 290.755 281.97 283.398 272.856 274.023C263.871 264.648 256.97 253.776 252.153 241.406C247.335 228.906 244.926 215.625 244.926 201.562V193.75C244.926 177.734 247.205 163.086 251.762 149.805C256.319 136.523 262.83 125 271.293 115.234C279.887 105.469 290.304 97.9818 302.543 92.7734C314.783 87.4349 328.585 84.7656 343.949 84.7656C358.923 84.7656 372.205 87.2396 383.793 92.1875C395.382 97.1354 405.082 104.167 412.895 113.281C420.837 122.396 426.827 133.333 430.864 146.094C434.9 158.724 436.918 172.786 436.918 188.281V211.719H268.949V174.219H381.645V169.922C381.645 162.109 380.212 155.143 377.348 149.023C374.614 142.773 370.447 137.826 364.848 134.18C359.249 130.534 352.087 128.711 343.364 128.711C335.942 128.711 329.561 130.339 324.223 133.594C318.884 136.849 314.522 141.406 311.137 147.266C307.882 153.125 305.408 160.026 303.715 167.969C302.153 175.781 301.371 184.375 301.371 193.75V201.562C301.371 210.026 302.543 217.839 304.887 225C307.361 232.161 310.811 238.346 315.239 243.555C319.796 248.763 325.265 252.799 331.645 255.664C338.155 258.529 345.512 259.961 353.715 259.961C363.871 259.961 373.311 258.008 382.035 254.102C390.89 250.065 398.507 244.01 404.887 235.938L432.231 265.625C427.804 272.005 421.749 278.125 414.067 283.984C406.515 289.844 397.4 294.661 386.723 298.438C376.046 302.083 363.871 303.906 350.199 303.906ZM468.758 0H525.008V251.562L519.344 300H468.758V0ZM658.797 192.188V196.289C658.797 212.044 657.105 226.497 653.719 239.648C650.464 252.799 645.386 264.193 638.485 273.828C631.584 283.333 622.99 290.755 612.704 296.094C602.547 301.302 590.568 303.906 576.766 303.906C563.875 303.906 552.678 301.302 543.172 296.094C533.797 290.885 525.92 283.529 519.54 274.023C513.159 264.518 508.016 253.385 504.11 240.625C500.204 227.865 497.274 213.932 495.321 198.828V189.844C497.274 174.74 500.204 160.807 504.11 148.047C508.016 135.286 513.159 124.154 519.54 114.648C525.92 105.143 533.797 97.7865 543.172 92.5781C552.547 87.3698 563.615 84.7656 576.375 84.7656C590.308 84.7656 602.417 87.4349 612.704 92.7734C623.12 97.9818 631.714 105.404 638.485 115.039C645.386 124.544 650.464 135.872 653.719 149.023C657.105 162.044 658.797 176.432 658.797 192.188ZM602.547 196.289V192.188C602.547 183.594 601.896 175.521 600.594 167.969C599.422 160.286 597.339 153.581 594.344 147.852C591.349 141.992 587.248 137.37 582.04 133.984C576.961 130.599 570.386 128.906 562.313 128.906C554.631 128.906 548.12 130.208 542.782 132.812C537.443 135.417 533.016 139.062 529.5 143.75C526.115 148.438 523.576 154.036 521.883 160.547C520.191 166.927 519.149 173.958 518.758 181.641V207.227C519.149 217.513 520.842 226.628 523.836 234.57C526.961 242.383 531.649 248.568 537.899 253.125C544.279 257.552 552.547 259.766 562.704 259.766C570.646 259.766 577.222 258.203 582.43 255.078C587.639 251.953 591.675 247.526 594.54 241.797C597.534 236.068 599.618 229.362 600.79 221.68C601.961 213.867 602.547 205.404 602.547 196.289ZM752.942 88.6719V300H696.497V88.6719H752.942ZM692.981 33.5938C692.981 25.3906 695.846 18.6198 701.575 13.2812C707.304 7.94271 714.986 5.27344 724.622 5.27344C734.127 5.27344 741.744 7.94271 747.473 13.2812C753.333 18.6198 756.262 25.3906 756.262 33.5938C756.262 41.7969 753.333 48.5677 747.473 53.9062C741.744 59.2448 734.127 61.9141 724.622 61.9141C714.986 61.9141 707.304 59.2448 701.575 53.9062C695.846 48.5677 692.981 41.7969 692.981 33.5938ZM902.751 88.6719V128.516H779.704V88.6719H902.751ZM810.173 36.5234H866.423V236.328C866.423 242.448 867.204 247.135 868.767 250.391C870.459 253.646 872.933 255.924 876.188 257.227C879.444 258.398 883.545 258.984 888.493 258.984C892.009 258.984 895.134 258.854 897.868 258.594C900.733 258.203 903.142 257.812 905.095 257.422L905.29 298.828C900.472 300.391 895.264 301.628 889.665 302.539C884.066 303.451 877.881 303.906 871.11 303.906C858.741 303.906 847.933 301.888 838.688 297.852C829.574 293.685 822.543 287.044 817.595 277.93C812.647 268.815 810.173 256.836 810.173 241.992V36.5234Z" fill="black"/>
</svg>
